Coordinates
version=1
nRows=14
nColumns=41
inDegrees=yes

Units are S.I. units (second, meters, Newtons, ...)
If the header above contains a line with 'inDegrees', this indicates whether rotational values are in degrees (yes) or radians (no).

endheader
time	pelvis_tilt	pelvis_list	pelvis_rotation	pelvis_tx	pelvis_ty	pelvis_tz	hip_flexion_r	hip_adduction_r	hip_rotation_r	knee_angle_r	ankle_angle_r	subtalar_angle_r	mtp_angle_r	hip_flexion_l	hip_adduction_l	hip_rotation_l	knee_angle_l	ankle_angle_l	subtalar_angle_l	mtp_angle_l	L5_S1_Flex_Ext	L5_S1_Lat_Bending	L5_S1_axial_rotation	neck_flexion	neck_bending	neck_rotation	arm_flex_r	arm_add_r	arm_rot_r	elbow_flex_r	pro_sup_r	wrist_flex_r	wrist_dev_r	arm_flex_l	arm_add_l	arm_rot_l	elbow_flex_l	pro_sup_l	wrist_flex_l	wrist_dev_l
      0.00000000	     -3.41695653	      6.98009656	    -82.32624192	      0.14048288	      1.04154091	     -0.01405570	     11.05813737	      1.10021451	     -1.36042583	      6.60272817	      2.89244099	    -14.17994156	      0.00000000	     10.26750801	     -3.55269277	     -8.06556537	      5.20789043	      5.50236342	     -7.29096788	      0.00000000	     -0.02333567	      0.91374558	      0.43840138	      0.00000000	      0.00000000	      0.00000002	      2.27970093	    -15.20178862	     13.59728594	     19.76323071	     78.43864903	      0.00000000	      0.00000000	      1.67306882	    -15.89263659	     18.24115443	     22.37784096	     77.62749620	      0.00000000	      0.00000000
      0.02000000	     -2.41384190	      6.96680219	    -82.61408039	      0.13978913	      1.04013936	     -0.01432056	     10.38645840	     -0.07704918	     -3.88160884	      5.91396604	      4.34221787	    -10.19274268	      0.00000000	      9.99133907	     -2.85402276	     -9.87241889	      4.28698819	      6.03514064	     -4.37040142	      0.00000000	     -0.01355716	      0.15714622	      0.24847721	      0.00000000	      0.00000000	      0.00000002	      2.51172731	    -14.56141021	      8.72000511	     18.09510231	     76.06680430	      0.00000000	      0.00000000	      1.98915895	    -15.37459886	     10.71781383	     21.52177522	     74.89374795	      0.00000000	      0.00000000
      0.04000000	     -1.80718150	      7.16771042	    -83.38462004	      0.13990496	      1.04099483	     -0.01354686	     10.25533987	     -0.81485437	     -3.88706200	      5.37453949	      3.42682415	    -10.58706150	      0.00000000	      9.49912896	     -2.25201306	     -9.35778349	      3.34106063	      4.31984208	     -6.98800616	      0.00000000	     -0.00907071	     -0.31118632	      0.13619833	      0.00000000	      0.00000000	      0.00000002	      2.74989899	    -14.41832911	      6.65440076	     19.45058721	     75.47573936	      0.00000000	      0.00000000	      1.68650762	    -14.90402560	      6.80308914	     21.09853875	     73.76523464	      0.00000000	      0.00000000
      0.06000000	     -1.60740425	      7.22643927	    -83.80921424	      0.13983126	      1.04138969	     -0.01312796	      9.98887199	     -0.96381302	     -4.40351232	      4.77046483	      2.54527046	    -10.39806844	      0.00000000	      8.98407111	     -2.07481549	     -9.21135561	      2.40221427	      3.62755277	     -6.88832192	      0.00000000	     -0.00578421	     -0.36969019	      0.17952402	      0.00000000	      0.00000000	      0.00000002	      2.95607473	    -14.48153150	      6.45597564	     19.66604332	     75.44857681	      0.00000000	      0.00000000	      1.52414084	    -14.99939858	      6.58175420	     21.16367576	     73.69854114	      0.00000000	      0.00000000
      0.08000000	     -1.64197534	      7.28207009	    -84.02456506	      0.13971461	      1.04163233	     -0.01268873	      9.86993658	     -0.92553542	     -4.46548573	      4.41299907	      1.77864757	    -11.30550720	      0.00000000	      8.62863139	     -2.06414979	     -8.33470390	      1.79745360	      2.38737601	     -8.63747231	      0.00000000	     -0.00921786	     -0.35815840	      0.00596810	      0.00000000	      0.00000000	      0.00000002	      2.82169309	    -14.53360392	      5.28095589	     20.97071685	     75.38958681	      0.00000000	      0.00000000	      1.07091660	    -15.00565268	      5.04368139	     21.84769105	     73.06697906	      0.00000000	      0.00000000
      0.10000000	     -1.46223611	      7.46964481	    -84.18871488	      0.13949877	      1.04174099	     -0.01276344	      9.98514261	     -1.12040793	     -4.71817642	      4.24296819	      1.30652559	    -11.25755813	      0.00000000	      8.57129046	     -1.82433700	     -8.31593587	      1.46642098	      2.05915092	     -8.57877311	      0.00000000	     -0.00890058	     -0.54232252	      0.05769406	      0.00000000	      0.00000000	      0.00000002	      2.98623578	    -14.59493097	      5.20929114	     21.02177954	     75.41260703	      0.00000000	      0.00000000	      1.29774220	    -15.07822507	      4.91432711	     21.89559086	     73.00574541	      0.00000000	      0.00000000
      0.12000000	     -1.40469487	      7.55401911	    -84.28500728	      0.13909451	      1.04172950	     -0.01282213	     10.01228073	     -1.15824366	     -4.81980961	      4.05278820	      1.21789027	    -11.29339936	      0.00000000	      8.55536560	     -1.75389172	     -8.36638692	      1.32228013	      2.00901410	     -8.62463673	      0.00000000	     -0.00582390	     -0.55998615	      0.05327353	      0.00000000	      0.00000000	      0.00000002	      3.12751120	    -14.61528278	      5.18929848	     21.06986501	     75.42246168	      0.00000000	      0.00000000	      1.54549288	    -15.16368733	      4.85490368	     21.94065567	     72.98290919	      0.00000000	      0.00000000
      0.14000000	     -1.24239772	      7.64704064	    -84.35563232	      0.13854693	      1.04170225	     -0.01281594	     10.03537907	     -1.29634278	     -4.86660262	      3.79752870	      0.61617640	    -11.23524662	      0.00000000	      8.55263838	     -1.56751218	     -8.40660663	      1.18246659	      1.59232167	     -8.71781810	      0.00000000	     -0.00402901	     -0.78634893	      0.15022207	      0.00000000	      0.00000000	      0.00000002	      3.14612922	    -14.54941223	      5.14759232	     21.05351602	     75.47038912	      0.00000000	      0.00000000	      1.85014647	    -15.18026540	      4.64398901	     21.83398154	     72.88861026	      0.00000000	      0.00000000
      0.16000000	     -1.20961132	      7.67007535	    -84.38629106	      0.13804036	      1.04166135	     -0.01261083	     10.05264235	     -1.29036035	     -4.85883306	      3.70203042	      0.59795941	    -11.25193820	      0.00000000	      8.54470582	     -1.54473466	     -8.42867605	      1.12598914	      1.58122416	     -8.75222951	      0.00000000	     -0.00344623	     -0.74293441	      0.11820156	      0.00000000	      0.00000000	      0.00000002	      3.17514117	    -14.51540349	      5.14350939	     21.05575194	     75.47720313	      0.00000000	      0.00000000	      2.01206268	    -15.16782377	      4.61127496	     21.85424901	     72.87612616	      0.00000000	      0.00000000
      0.18000000	     -1.19482910	      7.69229972	    -84.30679431	      0.13768425	      1.04156410	     -0.01233540	     10.04418295	     -1.27777265	     -4.80700042	      3.60628766	      0.53580698	    -11.23237537	      0.00000000	      8.55654236	     -1.53065103	     -8.45461074	      1.07359805	      1.53719939	     -8.77749713	      0.00000000	     -0.00230110	     -0.73297242	      0.17062137	      0.00000000	      0.00000000	      0.00000002	      3.25205196	    -14.45602404	      5.13967346	     21.06634728	     75.48555469	      0.00000000	      0.00000000	      2.08655227	    -15.13431972	      4.57269243	     21.83454159	     72.86091687	      0.00000000	      0.00000000
      0.20000000	     -1.17122637	      7.69072259	    -84.30693025	      0.13731070	      1.04142353	     -0.01204917	     10.05168032	     -1.25814333	     -4.80437355	      3.59337808	      0.52985856	    -11.23084471	      0.00000000	      8.55203600	     -1.53417020	     -8.45410237	      1.07426595	      1.53131655	     -8.77792072	      0.00000000	     -0.00229595	     -0.73077543	      0.17242097	      0.00000000	      0.00000000	      0.00000002	      3.25405218	    -14.45133649	      5.13906158	     21.06510974	     75.48627819	      0.00000000	      0.00000000	      2.09237073	    -15.12881948	      4.56908889	     21.83223936	     72.85951248	      0.00000000	      0.00000000
      0.22000000	     -1.16378070	      7.69021873	    -84.30524873	      0.13737884	      1.04129300	     -0.01205674	     10.05372015	     -1.25287903	     -4.80366747	      3.59062684	      0.52890595	    -11.23043017	      0.00000000	      8.55037759	     -1.53671013	     -8.45434798	      1.07421403	      1.53029307	     -8.77802852	      0.00000000	     -0.00191194	     -0.73013106	      0.17396771	      0.00000000	      0.00000000	      0.00000002	      3.25547738	    -14.44954348	      5.13906164	     21.06537456	     75.48641117	      0.00000000	      0.00000000	      2.09235691	    -15.12781855	      4.56852206	     21.83159009	     72.85929209	      0.00000000	      0.00000000
      0.24000000	     -1.22759929	      7.53751209	    -84.53817511	      0.13707915	      1.04144626	     -0.01227404	      9.73262903	     -1.04385648	     -3.82773919	      3.13273392	     -0.55529148	    -12.47757767	      0.00000000	      8.22377919	     -1.65054638	     -8.38236124	      0.76048856	      0.56995087	     -9.74534414	      0.00000000	     -0.00033240	     -0.63251580	      1.00617989	      0.00000000	      0.00000000	      0.00000002	      3.47128892	    -14.15634998	      4.14016942	     20.05421651	     75.92729202	      0.00000000	      0.00000000	      2.92542141	    -14.29170420	      2.05753822	     19.90169107	     72.06038077	      0.00000000	      0.00000000
      0.26000000	     -1.25295213	      7.52894461	    -84.49856058	      0.13742389	      1.04138824	     -0.01279493	      9.73801788	     -1.01692391	     -3.83829020	      3.14855973	     -0.56486256	    -12.48017347	      0.00000000	      8.21479553	     -1.68145678	     -8.40090505	      0.73335581	      0.57557927	     -9.75247906	      0.00000000	      0.00144742	     -0.61686238	      1.05568160	      0.00000000	      0.00000000	      0.00000002	      3.55070829	    -14.12261019	      4.13149749	     20.09537044	     75.93432798	      0.00000000	      0.00000000	      2.88695339	    -14.28887762	      2.04411028	     19.89404926	     72.05788638	      0.00000000	      0.00000000
